<svg width="153" height="93" viewBox="0 0 153 93" fill="none" xmlns="http://www.w3.org/2000/svg">
<g clip-path="url(#clip0_8_30953)">
<path d="M3.253 85.1746C2.11116 82.7756 1.49253 80.2058 1.42999 77.6017C1.37678 74.9986 1.79403 72.4049 2.66585 69.9193C4.42138 64.8817 7.77138 60.3994 12.3159 57.0074C14.6159 55.3446 17.1659 53.9753 19.8921 52.9391C22.5979 51.8805 25.4373 51.1149 28.3489 50.6588C34.1644 49.7802 40.1117 49.8544 45.8972 50.8776C48.7876 51.3732 51.6248 52.0883 54.3777 53.0148C55.765 53.4965 57.0956 54.0983 58.3504 54.8113C59.6276 55.5258 60.7675 56.4179 61.7265 57.4534C62.7097 58.5169 63.3482 59.7983 63.5732 61.1599C63.8066 62.5417 63.5079 63.9531 62.7256 65.1652C61.9621 66.3569 60.8725 67.3582 59.5579 68.0766C58.2536 68.8155 56.752 69.2336 55.2063 69.2882C53.6414 69.3367 52.098 68.9531 50.7885 68.1902C49.5068 67.4257 48.4681 66.3811 47.7723 65.1568C47.0633 63.9506 46.6623 62.6205 46.5979 61.2609C46.5335 59.8901 46.8592 58.527 47.545 57.2977C48.2459 56.0894 49.2329 55.0302 50.4381 54.1928C51.6369 53.3719 52.9855 52.7401 54.425 52.3248C57.26 51.5409 60.216 51.1576 63.1849 51.1889C64.6528 51.1679 66.1254 51.2141 67.5791 51.2857L71.9448 51.4708L80.6716 51.8494C86.4863 52.0808 92.301 52.2407 98.1109 52.1313C103.915 52.0638 109.706 51.6152 115.437 50.7892C121.142 49.9609 126.718 48.536 132.047 46.5442L134.022 45.7448C134.675 45.4755 135.343 45.2273 135.977 44.9034C137.261 44.3144 138.52 43.6875 139.732 42.9933C142.166 41.6374 144.394 40.01 146.361 38.1508C147.333 37.2197 148.211 36.2146 148.985 35.1469C149.764 34.091 150.41 32.9623 150.912 31.7811C151.407 30.5996 151.739 29.3691 151.901 28.1167C152.054 26.8581 152.054 25.5887 151.901 24.3302C151.746 23.0776 151.407 21.8485 150.893 20.6741C150.746 20.388 150.642 20.0851 150.471 19.8075L149.998 18.966L149.42 18.1709C149.231 17.9058 148.985 17.6786 148.772 17.4262C147.86 16.4568 146.768 15.6342 145.542 14.9944C144.285 14.3657 142.974 13.8255 141.622 13.3789C140.267 12.9034 138.899 12.4449 137.583 11.8643C136.924 11.5804 136.291 11.2527 135.689 10.884C135.086 10.5057 134.53 10.0713 134.031 9.58818C133.527 9.11026 133.087 8.58226 132.72 8.01468C132.34 7.45375 132.053 6.84735 131.867 6.214C131.675 5.58401 131.62 4.92702 131.706 4.27871C131.812 3.63347 132.073 3.01622 132.473 2.4696C132.093 3.02146 131.852 3.64018 131.768 4.2829C131.7 4.92473 131.774 5.57215 131.986 6.18876C132.186 6.80528 132.484 7.39323 132.871 7.93476C133.249 8.48097 133.696 8.98762 134.202 9.44514C134.701 9.90367 135.255 10.3128 135.854 10.6652C136.46 11.0104 137.093 11.3155 137.748 11.5782C139.06 12.1167 140.433 12.5374 141.802 12.9834C143.194 13.4085 144.548 13.9289 145.85 14.54C147.159 15.1816 148.335 16.0184 149.326 17.0139C149.562 17.2747 149.827 17.5145 150.036 17.788L150.67 18.6294L151.215 19.5003C151.392 19.7937 151.55 20.0957 151.688 20.4049C152.273 21.6301 152.671 22.919 152.872 24.2376C153.249 26.885 152.893 29.5739 151.835 32.0714C151.313 33.3139 150.637 34.5007 149.818 35.6097C149.016 36.7198 148.105 37.7645 147.095 38.7314C145.068 40.6442 142.771 42.317 140.263 43.7085C139.027 44.4195 137.744 45.059 136.437 45.6564C135.788 45.972 135.111 46.2202 134.448 46.4979L132.445 47.3099C127.034 49.3297 121.372 50.773 115.579 51.6096C109.802 52.4429 103.963 52.8957 98.1109 52.9643C92.2678 53.0737 86.4342 52.9138 80.5911 52.6825L71.8596 52.3038L67.4986 52.1145C66.0402 52.0472 64.6007 52.0051 63.1565 52.0219C60.2891 51.9877 57.4335 52.3554 54.6949 53.1116C53.3567 53.4969 52.1027 54.0832 50.9874 54.845C49.8915 55.6062 48.9921 56.5674 48.3499 57.6638C47.7455 58.7693 47.4591 59.9908 47.5166 61.2188C47.5806 62.4546 47.9457 63.6632 48.5867 64.7613C49.2088 65.8581 50.1383 66.7941 51.2857 67.4792C52.4287 68.1473 53.7775 68.4825 55.1448 68.4384C56.5261 68.3897 57.8679 68.015 59.0323 67.3529C60.2083 66.7082 61.1847 65.8131 61.8733 64.7487C63.2938 62.6451 62.7209 59.8599 60.9595 57.9709C59.198 56.0819 56.6411 54.7314 53.9989 53.7889C51.3022 52.8766 48.5218 52.1728 45.6888 51.6853C40.0181 50.6783 34.1877 50.6027 28.4863 51.4624C22.7924 52.3124 17.4341 54.4315 12.9126 57.6217C10.6718 59.2317 8.6955 61.1123 7.04107 63.2088C5.38497 65.3111 4.07291 67.6116 3.14409 70.0413C2.20386 72.4797 1.71298 75.0369 1.69042 77.6143C1.6674 80.1996 2.19767 82.7652 3.253 85.1746Z" fill="#231F20"/>
<path d="M2.80317 85.3345L0 88.5741L0.411952 89.4618L3.21512 86.218L3.62707 87.1057L0.823905 90.3453L1.23586 91.2288L4.03903 87.9893L4.44624 88.8728L1.64781 92.1123L2.05976 93L4.86293 89.7563L5.27962 90.665L6.15087 90.3453L5.72945 89.4407L10.2893 89.975L9.87738 89.0915L5.3175 88.553L4.90555 87.6695L9.4607 88.2038L9.04875 87.3203L4.49359 86.786L4.08164 85.9025L8.63679 86.4368L8.22484 85.5491L3.66969 85.0148L2.80317 85.3345Z" fill="#231F20"/>
<path d="M132.246 2.78516C130.873 3.03338 128.984 2.42755 127.828 1.79227C130.13 1.71765 132.368 1.09897 134.311 0C133.837 1.99842 134.311 4.07677 135.011 6.00366C133.861 5.20429 132.587 4.07677 132.246 2.78516Z" fill="#231F20"/>
</g>
<defs>
<clipPath id="clip0_8_30953">
<rect width="153" height="93" fill="white"/>
</clipPath>
</defs>
</svg>
