<svg width="22" height="22" viewBox="0 0 22 22" fill="none" xmlns="http://www.w3.org/2000/svg">
<path d="M21.7826 11.253C21.7826 10.5052 21.722 9.75345 21.5926 9.01782H11.2171V13.2537H17.1587C16.9121 14.6199 16.1199 15.8284 14.9599 16.5964V19.3448H18.5046C20.5862 17.429 21.7826 14.5997 21.7826 11.253Z" fill="#4285F4"/>
<path d="M11.2175 22.0002C14.1843 22.0002 16.6862 21.0261 18.5091 19.3447L14.9643 16.5962C13.9781 17.2671 12.7049 17.6471 11.2216 17.6471C8.35181 17.6471 5.91859 15.711 5.04554 13.108H1.38763V15.9414C3.25499 19.6559 7.05841 22.0002 11.2175 22.0002Z" fill="#34A853"/>
<path d="M5.04143 13.1085C4.58066 11.7423 4.58066 10.263 5.04143 8.89684V6.06348H1.38756C-0.172605 9.17169 -0.172605 12.8336 1.38756 15.9418L5.04143 13.1085Z" fill="#FBBC04"/>
<path d="M11.2175 4.35373C12.7858 4.32948 14.3015 4.9196 15.4373 6.00282L18.5778 2.86228C16.5892 0.994924 13.9499 -0.0317159 11.2175 0.000619207C7.05843 0.000619207 3.25502 2.34491 1.38766 6.06345L5.04153 8.89682C5.91054 6.2898 8.3478 4.35373 11.2175 4.35373Z" fill="#EA4335"/>
</svg>
