<svg width="49" height="48" viewBox="0 0 49 48" fill="none" xmlns="http://www.w3.org/2000/svg">
<rect x="0.5" width="48" height="48" rx="24" fill="#437EF7"/>
<path d="M32.5 20C35.4455 20 37.8333 17.6122 37.8333 14.6667C37.8333 11.7212 35.4455 9.33337 32.5 9.33337C29.5545 9.33337 27.1667 11.7212 27.1667 14.6667C27.1667 15.1697 27.2363 15.6564 27.3664 16.1177L20.2887 20.2464C19.3222 19.2709 17.9817 18.6667 16.5 18.6667C13.5545 18.6667 11.1667 21.0545 11.1667 24C11.1667 26.9456 13.5545 29.3334 16.5 29.3334C17.9817 29.3334 19.3222 28.7292 20.2887 27.7537L27.3664 31.8824C27.2363 32.3437 27.1667 32.8304 27.1667 33.3334C27.1667 36.2789 29.5545 38.6667 32.5 38.6667C35.4455 38.6667 37.8333 36.2789 37.8333 33.3334C37.8333 30.3879 35.4455 28 32.5 28C31.0183 28 29.6778 28.6042 28.7113 29.5797L21.6336 25.451C21.7637 24.9897 21.8333 24.503 21.8333 24C21.8333 23.4971 21.7637 23.0104 21.6336 22.5491L28.7113 18.4204C29.6778 19.3958 31.0183 20 32.5 20Z" fill="white"/>
</svg>
