<svg width="49" height="48" viewBox="0 0 49 48" fill="none" xmlns="http://www.w3.org/2000/svg">
<rect x="0.5" width="48" height="48" rx="24" fill="#437EF7"/>
<path d="M18.7769 16.3912C19.0268 15.869 19.1667 15.2842 19.1667 14.6666C19.1667 12.4575 17.3758 10.6666 15.1667 10.6666C12.9575 10.6666 11.1667 12.4575 11.1667 14.6666C11.1667 16.8758 12.9575 18.6666 15.1667 18.6666C15.7842 18.6666 16.3691 18.5267 16.8912 18.2768L18.9379 20.3234C18.2399 21.3773 17.8334 22.6412 17.8334 24C17.8334 25.3587 18.2399 26.6226 18.9379 27.6765L17.1907 29.4236C16.9704 29.3647 16.7389 29.3333 16.5 29.3333C15.0273 29.3333 13.8334 30.5272 13.8334 32C13.8334 33.4727 15.0273 34.6666 16.5 34.6666C17.9728 34.6666 19.1667 33.4727 19.1667 32C19.1667 31.7611 19.1353 31.5295 19.0764 31.3092L20.8235 29.5621C21.8774 30.2601 23.1412 30.6666 24.5 30.6666C25.8588 30.6666 27.1226 30.2601 28.1765 29.5621L30.2232 31.6087C29.9733 32.1309 29.8334 32.7158 29.8334 33.3333C29.8334 35.5424 31.6242 37.3333 33.8334 37.3333C36.0425 37.3333 37.8334 35.5424 37.8334 33.3333C37.8334 31.1242 36.0425 29.3333 33.8334 29.3333C33.2158 29.3333 32.631 29.4732 32.1088 29.7231L30.0622 27.6765C30.7602 26.6226 31.1667 25.3587 31.1667 24C31.1667 22.6412 30.7602 21.3773 30.0622 20.3234L31.8093 18.5763C32.0296 18.6352 32.2611 18.6666 32.5 18.6666C33.9728 18.6666 35.1667 17.4727 35.1667 16C35.1667 14.5272 33.9728 13.3333 32.5 13.3333C31.0273 13.3333 29.8334 14.5272 29.8334 16C29.8334 16.2388 29.8648 16.4704 29.9237 16.6907L28.1765 18.4378C27.1226 17.7398 25.8588 17.3333 24.5 17.3333C23.1412 17.3333 21.8774 17.7398 20.8235 18.4378L18.7769 16.3912Z" fill="white"/>
</svg>
