<svg width="49" height="48" viewBox="0 0 49 48" fill="none" xmlns="http://www.w3.org/2000/svg">
<rect x="0.5" width="48" height="48" rx="24" fill="#437EF7"/>
<path fill-rule="evenodd" clip-rule="evenodd" d="M9.83333 24C9.83333 15.8999 16.3998 9.33337 24.5 9.33337C32.6002 9.33337 39.1667 15.8999 39.1667 24C39.1667 32.1002 32.6002 38.6667 24.5 38.6667C16.3998 38.6667 9.83333 32.1002 9.83333 24ZM24.5 13.3334C25.2364 13.3334 25.8333 13.9303 25.8333 14.6667V19.8519C25.8333 20.5883 25.2364 21.1852 24.5 21.1852C23.7636 21.1852 23.1667 20.5883 23.1667 19.8519V14.6667C23.1667 13.9303 23.7636 13.3334 24.5 13.3334ZM33.8333 25.3334C34.5697 25.3334 35.1667 24.7364 35.1667 24C35.1667 23.2637 34.5697 22.6667 33.8333 22.6667H28.6481C27.9118 22.6667 27.3148 23.2637 27.3148 24C27.3148 24.7364 27.9118 25.3334 28.6481 25.3334H33.8333ZM24.5 26.8149C25.2364 26.8149 25.8333 27.4118 25.8333 28.1482V33.3334C25.8333 34.0698 25.2364 34.6667 24.5 34.6667C23.7636 34.6667 23.1667 34.0698 23.1667 33.3334V28.1482C23.1667 27.4118 23.7636 26.8149 24.5 26.8149ZM20.3518 25.3334C21.0882 25.3334 21.6852 24.7364 21.6852 24C21.6852 23.2637 21.0882 22.6667 20.3518 22.6667H15.1667C14.4303 22.6667 13.8333 23.2637 13.8333 24C13.8333 24.7364 14.4303 25.3334 15.1667 25.3334H20.3518Z" fill="white"/>
</svg>
